<?xml version="1.0" encoding="UTF-8"?><svg id="_色修正" xmlns="http://www.w3.org/2000/svg" viewBox="0 0 900 600"><defs><style>.cls-1{fill:#e50012;}.cls-1,.cls-2{stroke-width:0px;}.cls-2{fill:#fff000;}</style></defs><rect class="cls-1" y="0" width="900" height="600"/><path id="s" class="cls-2" d="M150,60l52.9,162.81L64.4,122.19h171.19l-138.5,100.62,52.9-162.81Z"/><path id="s-2" class="cls-2" d="M311.74,32.39l-5.01,56.84-29.36-48.93,52.51,22.33-55.61,12.8,37.46-43.04Z"/><path id="s-3" class="cls-2" d="M381.53,99.11l-26.68,50.44-8.07-56.49,39.73,40.96-56.22-9.78,51.23-25.13Z"/><path id="s-4" class="cls-2" d="M388.18,199.71l-44.93,35.17,15.68-54.87,19.57,53.6-47.34-31.86,57.03-2.05Z"/><path id="s-5" class="cls-2" d="M310.58,241.93l-2.65,57-31.36-47.67,53.39,20.13-55.03,15.1,35.65-44.56Z"/></svg>