<?xml version="1.0" encoding="UTF-8"?><svg id="_色修正" xmlns="http://www.w3.org/2000/svg" viewBox="0 0 900 600"><defs><style>.cls-1{stroke-width:25px;}.cls-1,.cls-2{stroke:#231815;}.cls-1,.cls-2,.cls-3,.cls-4{fill:#231815;}.cls-1,.cls-4{stroke-miterlimit:50;}.cls-2{stroke-width:25px;}.cls-2,.cls-3{stroke-miterlimit:50;}.cls-3{stroke-width:12.5px;}.cls-3,.cls-4{stroke:#fff;}.cls-4{stroke-width:12.5px;}.cls-5{fill:#e50012;}.cls-5,.cls-6,.cls-7{stroke-width:0px;}.cls-6{fill:#fff;}.cls-7{fill:#004097;}</style></defs><rect class="cls-6" y="0" width="900" height="600"/><g id="b2"><path id="b" class="cls-1" d="M148.38,189.06l83.21-124.81M179.58,209.86l83.21-124.81M210.79,230.66l83.21-124.81"/><path id="b-2" class="cls-1" d="M606.01,494.15l83.21-124.81M637.21,514.95l83.21-124.81M668.41,535.75l83.21-124.81"/></g><path class="cls-4" d="M626.81,417.87l104.01,69.34"/><circle class="cls-5" cx="450" cy="300" r="150"/><path class="cls-7" d="M325.19,216.79c-22.98,34.46-13.66,81.03,20.8,104.01,34.46,22.98,81.03,13.66,104.01-20.8s69.54-43.78,104.01-20.8c34.46,22.98,43.78,69.54,20.8,104.01-45.95,68.93-139.08,87.56-208.01,41.6s-87.56-139.08-41.6-208.01Z"/><g id="b2-2"><path id="b-3" class="cls-2" d="M231.59,535.75l-83.21-124.81M262.79,514.95l-83.21-124.81M293.99,494.15l-83.21-124.81"/><path id="b-4" class="cls-2" d="M689.21,230.66l-83.21-124.81M720.42,209.86l-83.21-124.81M751.62,189.06l-83.21-124.81"/></g><path class="cls-3" d="M205.59,462.94l31.2-20.8M626.81,182.13l36.4-24.27M694.41,137.06l31.2-20.8"/></svg>