<?xml version="1.0" encoding="UTF-8"?><svg id="_色修正" xmlns="http://www.w3.org/2000/svg" viewBox="0 0 900 600"><defs><style>.cls-1{stroke-width:1.84px;}.cls-1,.cls-2,.cls-3{stroke:#231815;}.cls-1,.cls-2,.cls-4{fill:#ffe100;}.cls-2,.cls-3{stroke-width:4.74px;}.cls-3,.cls-5{fill:#231815;}.cls-6{fill:#09843c;}.cls-6,.cls-5,.cls-7,.cls-4,.cls-8{stroke-width:0px;}.cls-7{fill:#93243a;}.cls-8{fill:#f08d2c;}</style></defs><rect class="cls-4" width="900" height="600.48"/><path class="cls-8" d="M35.17,300.24L159.98,36.74h124.81v527h-124.81L35.17,300.24Z"/><rect class="cls-6" x="35.17" y="36.74" width="127.24" height="527"/><rect class="cls-7" x="324.69" y="36.74" width="535.73" height="527"/><path id="leaf" class="cls-1" d="M795.95,480.4s5.89,12,12.4,16.88c9.65,7.24,29.42,6.72,37.82,15.17,10.06,9.96-.78,23.13-.69,24.27l.55,6.95s-6.78.08-9.64.53c-4.29.67-5.97,4.16-13.96,3.64-20.1-1.3-19.29-19.41-20.43-34.89-1.01-5.89-3.35-13.58-4.67-19.47-1.14-5.05-1.38-13.09-1.38-13.09h0Z"/><path id="leaf-2" class="cls-1" d="M393.73,479.6s-5.89,12-12.4,16.88c-9.65,7.24-29.42,6.72-37.82,15.17-10.06,9.96.78,23.13.69,24.27l-.55,6.95s6.78.08,9.64.53c4.29.67,5.97,4.16,13.96,3.64,20.1-1.3,19.29-19.41,20.43-34.89,1.01-5.89,3.35-13.58,4.67-19.47,1.14-5.05,1.38-13.09,1.38-13.09h0Z"/><path id="leaf-3" class="cls-1" d="M793.61,119.74s5.89-12,12.4-16.88c9.65-7.24,29.42-6.72,37.82-15.17,10.06-9.96-.78-23.13-.69-24.27l.55-6.95s-6.78-.08-9.64-.53c-4.29-.67-5.97-4.16-13.96-3.64-20.1,1.3-19.29,19.41-20.43,34.89-1.01,5.89-3.35,13.58-4.67,19.47-1.14,5.05-1.38,13.09-1.38,13.09h0Z"/><path id="leaf-4" class="cls-1" d="M394.75,120.51s-5.89-12-12.4-16.88c-9.65-7.24-29.42-6.72-37.82-15.17-10.06-9.96.78-23.13.69-24.27l-.55-6.95s6.78-.08,9.64-.53c4.29-.67,5.97-4.16,13.96-3.64,20.1,1.3,19.29,19.41,20.43,34.89,1.01,5.89,3.35,13.58,4.67,19.47,1.14,5.05,1.38,13.09,1.38,13.09h0Z"/><g id="lion"><path class="cls-2" d="M497.79,450.17l3.72-2.15,1.59,2.15c2.12,2.87,7.99,2.83,11.88-.07l2.98-2.22,2.49,2.22c3.28,2.92,9.4,2.92,13.3.01,2.74-2.04,3.12-2.08,4.93-.53,1.08.92,4.24,1.98,7.03,2.34,5.02.65,5.1.62,8.03-3.79,2.46-3.69,2.84-5.18,2.26-8.76-.39-2.37-.81-6.19-.93-8.49-.22-4.16-.2-4.18,5.85-6.29,3.34-1.16,7.21-2.73,8.6-3.47,2.42-1.3,9.08-9.13,9.08-10.67,0-.41-2.6-1.04-5.79-1.39-12.66-1.42-14.8-8.22-6.57-20.84,13.42-20.59,21.52-40.64,21.57-53.41.02-5.71.35-7.63,1.08-6.38,3,5.07-2.37,26.35-10.51,41.63l-3.28,6.15,3.13-.72c1.72-.4,11.83-4.66,22.46-9.48,29.11-13.19,39.11-15.77,57.95-14.98,15.78.66,22.51,3.75,33.65,15.44,5.9,6.19,11.59,10.62,22,17.14,22.17,13.87,23.09,15.08,24.14,31.39,1.07,16.53.54,17.43-11.97,20.19-10.69,2.36-17.39,7.34-19.18,14.27-.96,3.7,1.06,3.8,6.45.34l3.95-2.54,1.76,2.54c2.31,3.34,7.22,3.35,11.29.03l3.08-2.51,3.15,2.51c4.89,3.9,11.39,2.95,13.22-1.92.35-.94,1.29-.64,3.2,1.02,3.57,3.1,12.73,4.44,13.72,1.99.38-.93-.34-3.23-1.59-5.11-5.33-7.99-6.99-11.8-7.06-16.14-.1-6.05,1.71-8.96,8.59-13.88,8.35-5.97,10.94-13.68,4.58-13.68-3.92,0-7.88-3.47-10.4-9.12-5.13-11.49-4.12-24.36,3.57-45.79,7.82-21.76,8.68-25.77,8.71-40.33.03-11.77-.27-13.8-2.95-20.25-1.64-3.94-4.96-9.82-7.38-13.05l-4.4-5.88,5.65-4.68c17.27-14.3,13.73-37.72-7.05-46.74-6.36-2.76-7.95-3-19.09-2.93-6.69.04-16.88.92-22.65,1.96-5.89,1.05-15.85,1.89-22.69,1.92-10.86.04-12.7-.22-16.89-2.45-4.36-2.32-5.11-3.43-5.97-8.79-.18-1.1-.95-2.2-1.71-2.45-1.48-.47-8.34,5.48-9.35,8.12-.5,1.3-.91,1.21-2.37-.52-.97-1.15-2.33-3.8-3.02-5.88-1.73-5.24.39-9.16,6.55-12.1l4.77-2.28-2.82-1.75c-5.81-3.61-15.69-1.14-19.26,4.81-1.01,1.68-2.11,3.06-2.45,3.07-.34,0-2.26-1.6-4.27-3.57-7.5-7.33-4.92-18.17,5.11-21.48,5.35-1.77,10.08-.42,11.07,3.15,1.5,5.45,6.18-1.71,5.34-8.18-.56-4.3-.47-4.45,2.5-4.45,4.14,0,12.94,5.43,15.66,9.66,3.16,4.91,2.93,12.65-.55,18.42l-2.73,4.53,3.58-.72c5.24-1.05,10.34-4.31,12.91-8.25,2.72-4.17,3.02-12.3.6-16.69-2.34-4.25-2.07-4.93,1.39-3.49,5.89,2.44,9.03,5.14,11.39,9.75,2.13,4.16,2.24,5.19,1.09,9.52-.71,2.67-2.29,6.18-3.51,7.81-1.9,2.53-1.97,2.95-.45,2.95,2.82,0,8.71-2.67,10.8-4.9,1.06-1.12,2.6-3.89,3.42-6.16l1.5-4.11,1.73,3.13c2.44,4.43,7.19,8.42,12.97,10.9,6.22,2.67,8.82,2.82,5.56.32-2.19-1.68-6.24-13.55-5.01-14.71.72-.68,9.17,5.82,18.82,14.48,9.13,8.19,14.86,10.88,23.24,10.88,10.71,0,16.94-9.32,12.13-18.13-2.81-5.14-9.06-5.85-12.71-1.45-1.68,2.02-2.14,3.63-1.65,5.76.6,2.6.37,2.95-2,2.95-3.11,0-9.25-3.98-20.14-13.07-16.62-13.87-36.81-25.62-51.38-29.91-9.36-2.76-29.34-3.83-38.85-2.09-10.29,1.88-22.47,7.77-29.1,14.08-11.75,11.17-11.94,26.04-.5,39.58l3.28,3.88-2.22,3.45c-3.23,5.01-2.95,11.76.69,16.73,1.6,2.19,3.22,3.98,3.59,3.98.37,0,.78-1.41.91-3.13.32-4.35,2.19-7.26,5.39-8.42,2.89-1.04,4.75-.55,17.96,4.73,13.9,5.55,36.76,5.93,61.07,1.02,11.92-2.41,25.97-2.27,32.15.32,11.33,4.75,13.96,17.1,5.63,26.47-3.61,4.06-7.08,5.71-18.76,8.92-8.89,2.44-10.99,2.6-31.18,2.4-17.25-.17-23.45.16-30.5,1.63-7.65,1.6-12.35,1.76-34.81,1.19l-25.97-.65,2.88,2.38c1.58,1.31,3.82,2.93,4.97,3.59,1.96,1.12,1.89,1.28-1.02,2.35-1.71.63-5.51,1.15-8.44,1.15h-5.33l-.72,4.53c-.39,2.49-.36,5.4.07,6.46.64,1.57.4,1.79-1.25,1.19-1.12-.41-4.24-1.21-6.93-1.78-2.69-.57-6.32-1.74-8.06-2.59-2.92-1.43-3.25-1.39-4.32.51-.96,1.7-9.99,8.42-11.31,8.42-.21,0-.49-1.3-.61-2.88s-1.43-5.7-2.89-9.16c-1.47-3.45-3-7.22-3.41-8.37-.61-1.74-.89-1.83-1.63-.52-.49.86-1.2,3.22-1.59,5.23-.38,2.01-1.74,5.29-3.02,7.27l-2.32,3.61-1.48-3.09c-1.59-3.31-4.23-6.75-5.19-6.75-.32,0-.87,1.06-1.22,2.35-.73,2.7-6.99,10.2-8.53,10.2-.56,0-1.02-2.12-1.02-4.71s-.5-4.71-1.11-4.71-1.11.67-1.11,1.49c0,1.99-5.35,7.93-7.15,7.93-.78,0-2.04.71-2.8,1.57-1.97,2.25-3.59,1.94-2.76-.54.39-1.16.14-3.87-.56-6.02-.7-2.15-1.44-4.44-1.65-5.08-.26-.81-2.18-.6-6.24.7-6.56,2.1-8.76,1.73-5.38-.91,1.23-.97,3.11-4.31,4.17-7.43,1.06-3.12,2.62-5.89,3.47-6.16,1.19-.37,1.13.09-.28,1.99-1,1.36-1.83,3.18-1.83,4.06,0,.88-.76,2.96-1.68,4.63-.92,1.67-1.5,3.2-1.28,3.4.21.2,2.71-.75,5.54-2.11l5.16-2.47.02,2.21c.01,1.22.63,4.43,1.38,7.13l1.36,4.92,3.51-1.61c3.59-1.65,6.99-7.53,6.99-12.09,0-2.25,1.29-1.91,1.82.49.16.7.97,3.34,1.8,5.86l1.52,4.58,2.4-2.89c1.32-1.59,2.98-4.71,3.68-6.94,1.22-3.86,3.14-5.52,3.14-2.72,0,2.02,5.51,9.27,6.58,8.65.51-.3,1.54-3.02,2.28-6.04,1.53-6.29,4.01-10.56,5.58-9.64.59.35.82,1.02.51,1.49-.31.47.96,4.56,2.82,9.08,1.86,4.52,3.73,9.07,4.16,10.12.68,1.68,1.29,1.43,5.29-2.09,2.48-2.19,4.74-4.65,5.01-5.46.41-1.22.96-1.18,3.29.27,3.25,2.02,14.17,5.26,15.01,4.46.32-.3.64-3.17.72-6.37l.15-5.83,3.14.65c1.73.36,5.36.34,8.07-.05l4.93-.7-4.39-3.01c-2.42-1.66-4.86-3.8-5.43-4.77-.61-1.03-2.76-1.9-5.19-2.11-6.58-.56-18.25-7.1-18.25-10.24,0-.59,1.62.41,3.59,2.22,4.38,4.02,10.47,6.54,15.79,6.54h3.98l-2.46-3.27c-1.41-1.88-2.68-5.45-2.98-8.38-.47-4.68-.97-5.42-5.85-8.82-2.93-2.04-6.57-5.1-8.07-6.79l-2.74-3.08-1.4,3.66c-.77,2.01-1.71,3.66-2.09,3.66s-1.86-1.18-3.29-2.62c-1.43-1.44-2.88-2.61-3.23-2.6-.35,0-1.61,1.94-2.81,4.31l-2.17,4.3-1.68-2.48c-.92-1.36-3.11-3.77-4.85-5.35s-2.66-2.88-2.04-2.88,2.77,1.65,4.78,3.66l3.65,3.66,1.49-2.68c.88-1.59,1.21-4.04.81-6.02-.58-2.88-.5-3.05.61-1.24.7,1.15,2.84,3.36,4.74,4.9l3.47,2.81,2.39-4.38c2.38-4.36,2.4-4.37,3.48-1.76,1.45,3.48,11.93,12.07,20.85,17.09,1.38.77.8-1.89-1.74-8.01-.67-1.62-1.22-4.54-1.22-6.49,0-2.89-.83-4.18-4.53-7-5.34-4.06-7.07-6.96-8.08-13.51-.41-2.66-1.34-5.61-2.08-6.57-1.09-1.42-1.27-.62-.98,4.31.2,3.32-.24,7.45-.96,9.18l-1.32,3.14-1.02-2.62c-.56-1.44-3.04-3.94-5.51-5.56-2.47-1.62-4.2-3.22-3.85-3.55.35-.33,2.89,1.14,5.64,3.28,4.19,3.25,5.12,3.61,5.7,2.17.68-1.68,0-9.01-1.32-14.13-.66-2.56-.6-2.54,2.55.61,2.33,2.33,3.61,5.1,4.61,9.94,1.27,6.15,1.91,7.17,7.59,12.17,3.41,3,6.39,5.28,6.6,5.08.22-.21.65-7.96.96-17.24.59-17.78-.08-22.02-4.36-27.51l-2.2-2.82,3.46-3.73c4.51-4.87,6.59-8.77,7.48-14.09l.73-4.33-3.9,3.7c-3.2,3.03-4.72,3.7-8.43,3.7s-5.1-.61-7.57-3.25c-2.96-3.16-8.22-6.2-13.27-7.68-1.87-.55-2.49-.31-2.49.95,0,.93-1.03,3.6-2.29,5.93l-2.29,4.25-4.8-4.74c-2.94-2.91-6.44-5.17-9.04-5.86-6.64-1.75-7-1.57-7,3.37,0,7.5-3.2,8.9-8.97,3.91-4.4-3.8-8.04-4.63-16.38-3.71l-6.44.71,1.16,2.91c.97,2.43.75,3.45-1.32,6.21-3.36,4.47-7.73,6.41-14.46,6.41-3.1,0-6.98.64-8.62,1.43-1.64.78-5.72,1.69-9.06,2.01-3.34.32-6.91.89-7.92,1.27-1.58.59-1.76.1-1.25-3.5.78-5.51-3.07-9.58-9.07-9.58-7.78,0-11.37,6.96-8.33,16.15.59,1.77,1.35,4.56,1.71,6.19.36,1.7,3.87,6.21,8.17,10.51,4.14,4.14,8.05,8.45,8.69,9.58.64,1.13,2.77,2.93,4.72,4.01l3.55,1.97-.47-3.8c-.51-4.18.4-4.83,2.62-1.88.79,1.05,2.81,2.76,4.48,3.78,2.63,1.62,3.04,1.65,3.04.25,0-.89.54-2.95,1.19-4.57l1.19-2.95,2.07,4.01c1.14,2.2,4.84,7.22,8.23,11.13,6.57,7.6,10.57,16.1,8.51,18.06-.84.79-3.1.73-7.8-.21-3.64-.73-8.14-1.12-10-.86-3.8.53-4.1.04-1.76-2.89,2.47-3.09,2.08-3.6-2.77-3.6-5.61,0-19.54-2.69-24.89-4.81-5.2-2.06-6.4-1.55-7.93,3.39-.69,2.22-1.95,6.24-2.8,8.94l-1.55,4.9,5.63-.54c3.09-.3,7.07-.98,8.84-1.51,1.77-.53,3.38-.81,3.57-.63.2.19-.59,2.1-1.75,4.26l-2.11,3.92,3.51-.72c1.93-.39,4.83-1.36,6.45-2.14,2.82-1.36,3.04-1.26,5.26,2.3,2.73,4.38,4.92,4.2,5.4-.45.5-4.81,2.08-4.1,5.06,2.27,2.86,6.12,5.84,8.29,6.41,4.66.19-1.21,1.73-3.17,3.42-4.36,3.43-2.41,6.01-1.69,7.49,2.1,1.53,3.92-1.88,7.96-11.82,13.99-19.91,12.07-31.48,28.57-34.78,49.6-2.98,18.97,6.33,38.58,24.99,52.66,8.93,6.74,23.13,13.85,22.22,11.14-3.83-11.52-3.7-33.51.21-37.22.59-.56.39,1.74-.45,5.1-3.11,12.52-1.76,22.5,6.21,45.88,7.21,21.15,6.21,30.19-3.99,36.16-3.28,1.92-5.39,2.23-14.2,2.13-9.56-.12-10.61.08-13.68,2.52-2.98,2.37-6.84,10.16-6.84,13.79,0,1.97,2.19,1.71,6.48-.77h0Z"/><path class="cls-2" d="M653.03,449.74l4.01-2.58,2.72,2.58c3.57,3.38,7.74,3.3,11.17-.2,1.5-1.53,2.84-2.59,2.99-2.35.15.23.81,1.37,1.48,2.52.85,1.46,2.59,2.19,5.74,2.41,3.79.27,4.81-.1,6.31-2.28l1.8-2.6,3.95,2.54c10.81,6.95,16.57-.34,11.74-14.86-2.46-7.38-1.11-11.53,6.81-20.93,3.34-3.96,6.07-8.19,6.08-9.4,0-1.92-.62-2.18-5.06-2.09-4.25.08-5.5-.37-7.74-2.84-3.64-4.01-3.42-8.6.65-13.69l3.25-4.07-5.77-3.91c-3.17-2.15-8.89-7.25-12.71-11.32-8.58-9.15-17.01-13.48-28.14-14.47l-7.46-.66v5.65c.03,7.27,3.44,14.26,12.75,26.1,10.59,13.47,11.32,15.55,11.75,33.15l.36,14.88-3.06,2.91c-2.77,2.63-4.02,2.96-12.95,3.48-8.5.49-10.29.93-12.78,3.14-3.31,2.94-4.31,4.53-5.33,8.59-.6,2.36-.35,2.88,1.35,2.88,1.14,0,3.88-1.16,6.09-2.58h0Z"/><path class="cls-2" d="M425.5,411.27c.95-1.28,1.72-3.34,1.72-4.59,0-1.88.84-2.38,4.98-2.97l4.98-.71-3.32-2.64c-3.94-3.14-4.31-5.6-.83-5.6,3.46,0,9.32-3.59,10.21-6.25.41-1.24.15-2.89-.59-3.74-1.94-2.21-5.59-1.88-6.27.57-.73,2.64-1.95,2.64-4.71.03-4.16-3.94-4.25-12.09-.19-16.84,1.91-2.24,1.9-2.38-.54-4.69-2.62-2.48-4.5-7.4-3.26-8.57.39-.37,2.46-.08,4.61.66,3.04,1.04,4.24,1.06,5.5.07,3.8-2.98-.32-6.82-6.41-5.98-2.45.34-3.46,0-3.81-1.27-.27-.96-2.41-2.22-4.82-2.83-4.32-1.09-4.35-1.08-4.35,1.9,0,3.26-1.86,3.87-5.39,1.78-2.87-1.7-5.66-.38-5.66,2.68,0,2.85,2.87,4.26,8.01,3.93,3.94-.25,4.09,2.68.35,6.89l-2.69,3.03,2.13,3.07c3.16,4.54,2.89,12.08-.56,15.83l-2.71,2.94-1.78-2.35c-2.47-3.27-5.84-3.05-6.77.44-.61,2.29-.11,3.33,2.76,5.76,1.92,1.63,4.73,2.96,6.24,2.96,3.74,0,3.59,2.94-.29,5.91l-3.04,2.32,4.7.73c2.58.4,4.7,1.15,4.7,1.67,0,2,3.25,8.2,4.3,8.2.6,0,1.87-1.05,2.82-2.33h0Z"/><path class="cls-2" d="M486.65,384.77c4.27-1.68,13.5-9.5,13.5-11.43,0-.61-2.55-3.41-5.66-6.23-6.56-5.93-13.69-15.92-15.53-21.76-.96-3.05-5.62-8.26-18.73-20.98l-17.45-16.92-5.03,1.27c-2.77.7-6.14,1.29-7.5,1.31-2.34.04-2.3.17.81,2.58l3.28,2.54,4.6-2.56c4.46-2.48,4.62-2.49,5.17-.5.32,1.17-.37,3.19-1.61,4.68-1.2,1.44-1.88,3.07-1.51,3.63.36.56-.79,1.72-2.55,2.59-3.28,1.6-5.55,6.89-2.97,6.89,2.33,0,7.46-6.33,6.86-8.47-.3-1.1-.16-2.22.33-2.51,2-1.17,1.87,3.8-.16,6.24-1.2,1.44-1.88,3.07-1.51,3.63.36.56-.79,1.72-2.55,2.59-3.26,1.59-5.55,6.89-2.99,6.89s7.56-6.05,6.93-8.31c-.33-1.18-.2-2.38.28-2.67,1.35-.79,2.07,3.14.94,5.06-.61,1.03-.6,2.44.01,3.55,1.12,2.02-.02,5.9-2.07,7.1-.88.52-.28,1.53,1.86,3.15,3.1,2.34,3.16,2.59,3.16,12.91,0,8.63.35,10.86,1.93,12.36,1.78,1.69,1.93,1.69,1.93.08,0-1.77,3.1-3.92,5.63-3.92.75,0,5.42,3.96,10.38,8.8,4.99,4.87,10.22,9.01,11.7,9.28,1.47.26,3.06.54,3.54.62.48.08,2.71-.59,4.97-1.48h0Z"/><path class="cls-2" d="M433.3,343.02c0-2.78-5.74-5.75-12.6-6.52-5.54-.62-5.63-.59-5.63,2.18,0,2.29.87,3.19,4.7,4.86,6.15,2.68,13.54,2.39,13.54-.52h0Z"/><path class="cls-2" d="M439.59,342.76c2.8-2.54,4.13-5.56,2.44-5.56-1.94,0-7.08,4.61-7.08,6.35,0,2.71.95,2.55,4.64-.79h0Z"/><path class="cls-2" d="M433.62,334.54c.24-1.57-.73-2.62-3.64-3.93-6.28-2.83-13.78-4.15-15.59-2.73-3.33,2.62-1.11,6.13,4.27,6.76,2.17.25,5.1.91,6.53,1.47,4.13,1.61,8.07.87,8.44-1.57Z"/><path class="cls-2" d="M433.62,326.13c.34-2.24-1.09-3.04-12.78-7.15-8.73-3.07-12.59-1.62-9.8,3.67.97,1.85,2.6,2.69,6.26,3.24,2.72.41,6.44,1.2,8.26,1.77,4.87,1.51,7.69.98,8.06-1.53h0Z"/><path class="cls-2" d="M439.48,318.26c1.76-1.79,3.21-3.9,3.21-4.69,0-2.57-6.96,1.97-7.85,5.12-1.06,3.77.66,3.61,4.65-.43h0Z"/><path class="cls-2" d="M433.62,317.73c.38-2.55-3.86-4.85-12.2-6.62-6.12-1.3-8.82-.56-8.36,2.28.25,1.55,2.29,2.69,8.07,4.49,9.25,2.89,12.04,2.85,12.49-.15h0Z"/><path class="cls-2" d="M441.78,305.86c10.69-4.76,11.61-16.76,1.53-19.91-4.18-1.31-6.86-.6-8.46,2.23-1.23,2.17-.41,6.12,1.27,6.12.57,0,1.03.73,1.03,1.62,0,4.17-16.32,6.05-23.01,2.66-2.35-1.19-3.37-4.28-1.42-4.28,1.46,0,2.47-3.15,1.73-5.38-1.02-3.04-4.08-4.09-8.52-2.93-10.02,2.62-9.74,14.39.46,19.39,8.36,4.1,26.7,4.35,35.38.48h0Z"/><path class="cls-2" d="M435.13,296.63c.62-.59.35-1.49-.69-2.3-2.27-1.79-2.15-4.44.34-7.48,1.87-2.28,2.11-5.7,2.75-40.17,1.11-59.4,5.53-104.08,11.35-114.8,2.32-4.27,1.99-4.28-4-.21-7.72,5.25-13.59,12.09-18.8,21.87-9.83,18.48-13.24,43.33-13.24,96.39,0,30.13.21,34.07,1.92,36.9,1.63,2.69,1.72,3.68.57,6.56-.74,1.86-1.08,3.64-.75,3.96,2.19,2.08,18.18,1.53,20.54-.71h0Z"/><path class="cls-2" d="M524.93,239.99c.33-.51-.41-3.1-1.64-5.76-1.93-4.14-2.71-4.82-5.46-4.82-8.62,0-22.48-3.85-36.76-10.22-8.25-3.68-11.1-4.52-12.09-3.59-2.52,2.39,1.67,8.06,8.17,11.05,5.76,2.65,21.88,5.9,29.23,5.9,4.26,0,4.36.19,1.94,3.7l-1.78,2.58,4.82.12c2.65.07,6.32.48,8.14.92,4.74,1.14,4.78,1.14,5.45.11h0Z"/><path class="cls-3" d="M575.29,266.76c0-1.54-4.51-5.7-9.08-8.38-3.59-2.11-4.18-2.17-4.19-.45-.01,2.61-2.33,9.16-3.24,9.16-.51,0-1.27-1.28-1.69-2.84-.41-1.56-2.15-4.65-3.87-6.85l-3.11-4.01-2.42,3.71c-2.26,3.46-6.17,6.85-7.91,6.85-.41,0-.5-1.82-.18-4.05.34-2.42.08-4.34-.66-4.77-.68-.4-1.23-.26-1.23.31,0,1.3-5.43,7.47-6.58,7.47-.47,0-1.14-1.77-1.47-3.92-.34-2.16-.91-5.57-1.27-7.59-.36-2.01.41-.65,1.72,3.04l2.38,6.7,2.61-4.08c1.44-2.25,2.61-4.7,2.61-5.45,0-.75.49-1.09,1.08-.74.59.35,1.41,3.04,1.83,6l.75,5.37,2.87-3.15c1.58-1.73,3.43-4.05,4.11-5.15,1.22-1.97,1.29-1.96,3.71.09,1.36,1.15,3.44,3.9,4.64,6.12,1.19,2.21,2.33,3.86,2.52,3.66.2-.2.63-2.48.97-5.07.34-2.59.64-4.81.67-4.92.17-.64,8.65,4.87,11.79,7.66,2.02,1.79,3.93,3.01,4.26,2.7.32-.31.59-2.95.59-5.88,0-4.54-.48-5.75-3.26-8.23-3.19-2.85-3.28-2.87-4.46-.78-1.53,2.71-3.34,2.75-3.34.07,0-1.95-6.03-9.46-7.6-9.46-.41,0-1.68,1.65-2.82,3.66-1.15,2.01-2.38,3.66-2.74,3.66-1.55,0-10.05-9.49-10.04-11.2,0-1.36.57-1.01,2.06,1.26,1.13,1.73,3.39,4.3,5.03,5.73,3.31,2.88,4.51,2.18,5.78-3.37.36-1.58.99-2.88,1.4-2.88,1.41,0,8.81,7.86,9.85,10.47l1.04,2.62.79-2.88c.97-3.52,2.04-3.65,3.58-.44.65,1.34,3.83,4.13,7.08,6.2l5.91,3.76,1.19-3.78c.65-2.08,1.52-3.27,1.92-2.66.6.92-.93,7.19-2.09,8.54-.17.2-2.09-.91-4.26-2.48l-3.94-2.85-.02,5.1c-.01,2.8-.31,6.15-.68,7.45-.72,2.53-2.62,3.24-2.62.98h0Z"/><path class="cls-3" d="M545.82,226.14c-7.02-5.86-8.09-7.21-7.94-9.99l.17-2.96.46,2.86c.27,1.67,2.14,4.17,4.5,6.01l4.04,3.15,2.48-2.87c1.36-1.58,2.5-3.46,2.52-4.18.06-1.88.39-1.72,5.15,2.41,4.23,3.67,4.29,3.68,4.92,1.31.35-1.32.23-3.82-.28-5.54-1.38-4.74-1.11-5.45.98-2.59,1.04,1.42,2.72,3.43,3.72,4.47,1.75,1.8,1.86,1.78,2.51-.52.37-1.32.69-3.75.7-5.38l.02-2.98,3.81,4.32c3.56,4.03,3.89,4.18,4.97,2.26.64-1.13,1.17-3.85,1.18-6.05.01-2.84.31-3.55,1.03-2.47,1.21,1.8.37,6.72-1.86,10.9l-1.6,3-2.1-3.27c-2.68-4.18-3.57-4.11-5.29.4-1.63,4.26-2.68,4.58-4.27,1.31-1.03-2.12-1.22-1.86-1.95,2.59l-.81,4.95-4.85-3.76-4.85-3.76-2.18,2.48c-1.2,1.36-2.19,3.07-2.22,3.78-.04,1.56-1.21,1.61-2.99.12h0Z"/><path class="cls-3" d="M608.3,204.29c-2.56-2.3-4.32-4.5-3.91-4.88.4-.38.86-.49,1.01-.24.15.25,2.24,2.45,4.64,4.88,5.53,5.61,4.39,5.77-1.74.24h0Z"/><path class="cls-3" d="M525.07,195.69c-2.33-3.14-2.17-5.23.67-8.64,2.05-2.46,2.98-2.8,6.55-2.34,2.29.29,7.22,2.32,10.96,4.5,4.31,2.52,8.78,4.21,12.23,4.63,2.99.36,5.44.5,5.44.3s-1.24-2.22-2.76-4.5c-3.61-5.41-3.48-5.99.59-2.75,4.18,3.33,9.17,4.3,20.34,3.96l5.46-.17-3.16-3.13c-4.43-4.38-3.06-4.77,1.82-.53,4.58,3.98,4.3,4.26-5.35,5.22-4.1.41-8.51.11-12.17-.82-5.48-1.39-5.7-1.37-4.66.46.6,1.06,1.57,1.93,2.15,1.93s1.07.54,1.07,1.19c0,2.02-11.84.24-17.5-2.62-12.93-6.55-14.56-7.11-17.63-6.14-1.71.54-3.43,2.12-4.02,3.7-1.97,5.28,5.52,9.38,8.61,4.72.9-1.35.69-2.28-.89-3.92-2.15-2.25-1.95-2.58.96-1.52,2.07.75,2.34,5.71.42,7.53-2.2,2.08-7.21,1.49-9.11-1.07h0Z"/><path class="cls-3" d="M576,182.65c-1.62-1.53-.35-1.91,6.9-2.04,8.97-.17,14.41-1.66,20.84-5.72,5.15-3.25,6.54-2.61,1.66.76-4.46,3.07-11.41,5.44-18.12,6.16-3.25.35-6.96.83-8.23,1.08-1.28.24-2.64.14-3.04-.24h0Z"/></g><g id="lion-2"><path class="cls-4" d="M497.89,450l3.72-2.15,1.59,2.15c2.12,2.86,7.98,2.83,11.87-.07l2.97-2.22,2.49,2.22c3.27,2.91,9.39,2.92,13.29.01,2.73-2.04,3.11-2.08,4.92-.53,1.08.92,4.24,1.97,7.02,2.34,5.01.65,5.09.62,8.02-3.79,2.46-3.69,2.84-5.18,2.26-8.75-.39-2.37-.81-6.19-.93-8.48-.22-4.15-.2-4.18,5.85-6.28,3.34-1.16,7.2-2.72,8.59-3.47,2.41-1.3,9.07-9.12,9.07-10.66,0-.41-2.6-1.03-5.78-1.39-12.64-1.42-14.79-8.21-6.57-20.82,13.4-20.57,21.49-40.6,21.55-53.36.02-5.7.35-7.62,1.08-6.38,3,5.07-2.37,26.32-10.5,41.58l-3.27,6.15,3.12-.72c1.72-.4,11.82-4.66,22.44-9.47,29.08-13.17,39.07-15.75,57.89-14.96,15.77.66,22.48,3.74,33.62,15.42,5.9,6.19,11.58,10.61,21.97,17.12,22.14,13.86,23.07,15.06,24.12,31.36,1.07,16.51.54,17.41-11.95,20.17-10.68,2.36-17.37,7.34-19.16,14.25-.96,3.69,1.06,3.8,6.44.34l3.94-2.54,1.75,2.54c2.31,3.33,7.21,3.35,11.28.03l3.07-2.5,3.14,2.5c4.88,3.89,11.38,2.95,13.21-1.92.35-.94,1.29-.64,3.2,1.02,3.57,3.1,12.71,4.43,13.7,1.99.38-.93-.34-3.23-1.59-5.11-5.32-7.98-6.99-11.78-7.05-16.13-.1-6.04,1.71-8.96,8.58-13.87,8.35-5.97,10.93-13.67,4.58-13.67-3.92,0-7.87-3.46-10.39-9.11-5.12-11.47-4.12-24.34,3.57-45.74,7.81-21.74,8.67-25.75,8.7-40.28.03-11.75-.27-13.79-2.95-20.23-1.64-3.94-4.95-9.81-7.37-13.04l-4.4-5.87,5.65-4.68c17.25-14.29,13.72-37.68-7.04-46.69-6.35-2.76-7.94-3-19.07-2.93-6.68.04-16.86.92-22.63,1.95-5.88,1.05-15.83,1.89-22.66,1.92-10.85.04-12.69-.22-16.87-2.45-4.36-2.32-5.11-3.42-5.96-8.78-.18-1.1-.95-2.2-1.71-2.44-1.48-.47-8.33,5.47-9.34,8.11-.5,1.3-.91,1.21-2.37-.52-.97-1.15-2.33-3.79-3.02-5.87-1.73-5.23.39-9.15,6.54-12.09l4.77-2.28-2.81-1.75c-5.8-3.6-15.67-1.14-19.24,4.8-1.01,1.68-2.11,3.06-2.45,3.06-.34,0-2.26-1.6-4.26-3.56-7.49-7.32-4.92-18.15,5.11-21.46,5.34-1.76,10.07-.42,11.06,3.15,1.5,5.44,6.17-1.71,5.34-8.17-.56-4.29-.47-4.44,2.5-4.44,4.13,0,12.93,5.42,15.65,9.65,3.16,4.91,2.93,12.64-.55,18.4l-2.73,4.52,3.57-.72c5.24-1.05,10.32-4.3,12.9-8.25,2.72-4.17,3.01-12.29.6-16.67-2.34-4.25-2.07-4.92,1.39-3.49,5.88,2.44,9.02,5.13,11.38,9.74,2.12,4.15,2.24,5.19,1.09,9.51-.71,2.67-2.29,6.18-3.51,7.8-1.9,2.53-1.96,2.95-.45,2.95,2.82,0,8.7-2.67,10.79-4.89,1.06-1.12,2.59-3.89,3.42-6.15l1.5-4.11,1.72,3.13c2.44,4.43,7.18,8.41,12.96,10.89,6.22,2.67,8.81,2.82,5.55.32-2.19-1.68-6.23-13.54-5.01-14.69.72-.68,9.16,5.81,18.8,14.46,9.12,8.18,14.85,10.87,23.22,10.87,10.7,0,16.92-9.31,12.12-18.12-2.8-5.13-9.05-5.85-12.7-1.45-1.68,2.02-2.14,3.63-1.65,5.75.6,2.6.37,2.94-2,2.94-3.11,0-9.24-3.98-20.12-13.06-16.6-13.85-36.77-25.59-51.33-29.88-9.35-2.75-29.31-3.83-38.81-2.09-10.28,1.88-22.44,7.77-29.07,14.06-11.74,11.16-11.93,26.02-.5,39.54l3.27,3.87-2.22,3.44c-3.22,5.01-2.95,11.75.68,16.72,1.6,2.19,3.21,3.98,3.59,3.97.37,0,.78-1.41.91-3.12.32-4.34,2.19-7.26,5.39-8.41,2.88-1.04,4.75-.55,17.95,4.72,13.89,5.54,36.72,5.92,61,1.02,11.9-2.4,25.94-2.26,32.12.32,11.32,4.74,13.94,17.08,5.62,26.44-3.6,4.05-7.08,5.71-18.74,8.91-8.88,2.44-10.98,2.6-31.15,2.4-17.24-.17-23.43.16-30.46,1.63-7.64,1.59-12.34,1.76-34.77,1.19l-25.94-.65,2.88,2.38c1.58,1.31,3.82,2.92,4.97,3.58,1.96,1.12,1.89,1.27-1.02,2.35-1.71.63-5.5,1.15-8.43,1.15h-5.32l-.72,4.52c-.39,2.49-.36,5.39.07,6.45.63,1.57.4,1.79-1.25,1.19-1.12-.41-4.24-1.21-6.93-1.78-2.69-.57-6.31-1.73-8.05-2.58-2.92-1.43-3.24-1.39-4.32.51-.96,1.7-9.98,8.41-11.3,8.41-.21,0-.49-1.29-.61-2.87s-1.42-5.7-2.89-9.15c-1.47-3.45-3-7.21-3.4-8.36-.61-1.73-.89-1.82-1.62-.52-.49.86-1.2,3.21-1.58,5.23-.38,2.01-1.74,5.28-3.02,7.26l-2.32,3.61-1.48-3.08c-1.59-3.31-4.23-6.74-5.19-6.74-.32,0-.87,1.06-1.22,2.35-.73,2.7-6.99,10.19-8.52,10.19-.56,0-1.02-2.12-1.02-4.7s-.5-4.7-1.1-4.7-1.1.67-1.1,1.49c0,1.99-5.35,7.92-7.14,7.92-.78,0-2.04.71-2.8,1.57-1.97,2.25-3.58,1.93-2.75-.54.39-1.16.14-3.86-.56-6.01-.7-2.15-1.44-4.43-1.65-5.08-.26-.81-2.18-.6-6.23.7-6.55,2.1-8.75,1.73-5.38-.91,1.23-.96,3.11-4.31,4.16-7.43,1.06-3.12,2.62-5.89,3.47-6.15,1.19-.37,1.13.09-.28,1.98-1,1.35-1.82,3.18-1.83,4.06,0,.88-.76,2.96-1.68,4.63-.92,1.67-1.49,3.2-1.28,3.4.21.2,2.71-.75,5.54-2.1l5.15-2.47.02,2.21c.01,1.22.63,4.42,1.38,7.13l1.36,4.92,3.51-1.61c3.58-1.65,6.98-7.52,6.98-12.07,0-2.25,1.29-1.91,1.82.49.15.7.96,3.34,1.8,5.86l1.52,4.58,2.4-2.89c1.32-1.59,2.98-4.71,3.68-6.93,1.22-3.86,3.14-5.52,3.14-2.71,0,2.02,5.51,9.26,6.57,8.64.51-.3,1.54-3.02,2.27-6.04,1.53-6.28,4-10.55,5.57-9.63.59.35.82,1.02.51,1.49-.31.47.96,4.56,2.82,9.08,1.86,4.52,3.73,9.07,4.15,10.11.68,1.67,1.29,1.43,5.28-2.09,2.48-2.19,4.73-4.64,5.01-5.45.41-1.22.96-1.18,3.28.26,3.25,2.01,14.16,5.26,15,4.46.32-.3.64-3.16.72-6.37l.15-5.82,3.14.65c1.73.36,5.35.34,8.06-.05l4.93-.7-4.39-3.01c-2.41-1.66-4.86-3.8-5.42-4.76-.61-1.03-2.76-1.9-5.19-2.1-6.58-.56-18.23-7.1-18.23-10.23,0-.59,1.61.41,3.59,2.22,4.38,4.01,10.46,6.53,15.77,6.53h3.97l-2.46-3.27c-1.41-1.88-2.68-5.44-2.98-8.37-.47-4.67-.97-5.42-5.85-8.81-2.93-2.04-6.56-5.09-8.07-6.79l-2.74-3.08-1.4,3.66c-.77,2.01-1.71,3.66-2.09,3.66s-1.86-1.18-3.28-2.61c-1.43-1.44-2.88-2.61-3.23-2.6-.35,0-1.61,1.94-2.81,4.3l-2.17,4.29-1.68-2.47c-.92-1.36-3.1-3.77-4.84-5.35-1.74-1.58-2.66-2.87-2.04-2.87s2.77,1.65,4.78,3.66l3.65,3.66,1.48-2.68c.88-1.59,1.21-4.04.81-6.01-.58-2.88-.5-3.05.6-1.24.7,1.15,2.84,3.35,4.74,4.9l3.46,2.81,2.39-4.38c2.38-4.36,2.39-4.36,3.48-1.76,1.45,3.48,11.92,12.06,20.83,17.08,1.37.77.79-1.88-1.74-8-.67-1.62-1.22-4.54-1.22-6.48,0-2.89-.83-4.18-4.53-6.99-5.34-4.06-7.06-6.95-8.07-13.5-.41-2.65-1.34-5.6-2.08-6.56-1.09-1.41-1.27-.62-.98,4.3.2,3.32-.24,7.45-.96,9.17l-1.32,3.14-1.02-2.61c-.56-1.44-3.04-3.94-5.5-5.56-2.47-1.62-4.2-3.21-3.85-3.55.35-.33,2.89,1.14,5.64,3.28,4.19,3.25,5.11,3.6,5.69,2.17.68-1.68,0-9-1.32-14.12-.66-2.55-.6-2.54,2.55.61,2.32,2.32,3.61,5.1,4.61,9.93,1.26,6.14,1.9,7.17,7.58,12.15,3.41,3,6.38,5.28,6.6,5.07.22-.21.65-7.95.96-17.22.59-17.77-.08-21.99-4.36-27.48l-2.2-2.82,3.46-3.73c4.51-4.86,6.58-8.76,7.48-14.08l.73-4.33-3.9,3.69c-3.19,3.02-4.72,3.69-8.42,3.69s-5.09-.61-7.56-3.24c-2.96-3.16-8.21-6.19-13.25-7.67-1.86-.55-2.48-.31-2.48.95,0,.92-1.03,3.59-2.29,5.93l-2.29,4.25-4.79-4.74c-2.94-2.91-6.43-5.17-9.03-5.85-6.63-1.74-6.99-1.57-6.99,3.37,0,7.5-3.2,8.89-8.96,3.91-4.39-3.8-8.03-4.62-16.36-3.71l-6.43.71,1.16,2.9c.97,2.42.75,3.45-1.32,6.2-3.36,4.47-7.73,6.4-14.45,6.4-3.1,0-6.97.64-8.61,1.42-1.64.78-5.71,1.69-9.05,2-3.34.32-6.9.89-7.91,1.27-1.58.59-1.76.1-1.25-3.49.78-5.51-3.07-9.57-9.06-9.57-7.78,0-11.36,6.96-8.32,16.13.59,1.77,1.35,4.55,1.7,6.19.36,1.7,3.87,6.21,8.16,10.5,4.14,4.14,8.04,8.44,8.68,9.57.64,1.12,2.76,2.93,4.71,4.01l3.55,1.97-.47-3.8c-.51-4.17.39-4.83,2.61-1.88.79,1.05,2.81,2.75,4.48,3.78,2.63,1.62,3.04,1.65,3.04.25,0-.89.54-2.94,1.19-4.56l1.19-2.94,2.07,4c1.14,2.2,4.83,7.21,8.22,11.12,6.56,7.6,10.56,16.09,8.5,18.04-.84.79-3.1.73-7.79-.21-3.64-.73-8.13-1.12-9.99-.86-3.8.53-4.1.04-1.76-2.89,2.47-3.09,2.07-3.6-2.77-3.6-5.61,0-19.52-2.69-24.86-4.8-5.19-2.06-6.39-1.54-7.92,3.38-.69,2.22-1.95,6.24-2.8,8.93l-1.55,4.9,5.62-.54c3.09-.3,7.07-.97,8.83-1.5,1.77-.53,3.37-.81,3.57-.63.2.19-.59,2.1-1.75,4.25l-2.11,3.91,3.5-.71c1.93-.39,4.83-1.35,6.44-2.14,2.81-1.36,3.04-1.26,5.26,2.3,2.73,4.38,4.91,4.2,5.4-.44.5-4.8,2.08-4.09,5.05,2.27,2.86,6.12,5.83,8.28,6.4,4.65.19-1.2,1.73-3.16,3.42-4.36,3.42-2.41,6-1.69,7.48,2.1,1.53,3.92-1.88,7.96-11.81,13.97-19.89,12.05-31.44,28.54-34.74,49.55-2.98,18.95,6.32,38.54,24.97,52.6,8.92,6.73,23.1,13.84,22.2,11.13-3.83-11.51-3.7-33.48.21-37.19.59-.56.39,1.74-.45,5.09-3.11,12.51-1.76,22.47,6.21,45.83,7.2,21.13,6.21,30.15-3.99,36.12-3.27,1.92-5.38,2.23-14.19,2.13-9.55-.12-10.59.08-13.66,2.52-2.97,2.37-6.83,10.15-6.83,13.78,0,1.97,2.18,1.71,6.48-.77h0Z"/><path class="cls-4" d="M652.96,449.57l4.01-2.58,2.72,2.58c3.56,3.37,7.74,3.3,11.16-.2,1.49-1.53,2.84-2.59,2.98-2.35.15.23.81,1.37,1.48,2.52.85,1.46,2.59,2.19,5.73,2.41,3.79.27,4.8-.1,6.31-2.27l1.79-2.59,3.94,2.54c10.8,6.94,16.55-.34,11.73-14.84-2.45-7.37-1.1-11.52,6.81-20.9,3.34-3.96,6.07-8.18,6.07-9.39,0-1.92-.62-2.18-5.06-2.09-4.25.08-5.49-.37-7.73-2.83-3.64-4-3.42-8.59.64-13.68l3.25-4.06-5.76-3.91c-3.17-2.15-8.88-7.24-12.7-11.31-8.57-9.14-17-13.47-28.11-14.45l-7.45-.66v5.64c.03,7.26,3.43,14.24,12.73,26.08,10.57,13.45,11.31,15.53,11.74,33.11l.36,14.87-3.06,2.9c-2.77,2.62-4.01,2.96-12.93,3.47-8.49.49-10.28.93-12.77,3.14-3.31,2.93-4.3,4.53-5.32,8.58-.6,2.36-.35,2.87,1.35,2.87,1.14,0,3.88-1.16,6.08-2.58h0Z"/><path class="cls-4" d="M425.67,411.15c.95-1.28,1.72-3.34,1.72-4.59,0-1.88.84-2.38,4.97-2.97l4.97-.71-3.32-2.64c-3.94-3.14-4.3-5.59-.83-5.6,3.46,0,9.31-3.59,10.2-6.25.41-1.23.15-2.88-.59-3.73-1.94-2.21-5.58-1.88-6.26.57-.73,2.63-1.95,2.64-4.71.03-4.15-3.93-4.25-12.08-.19-16.82,1.91-2.23,1.89-2.38-.54-4.69-2.62-2.48-4.49-7.39-3.26-8.56.39-.37,2.46-.08,4.6.66,3.04,1.04,4.24,1.06,5.49.07,3.79-2.98-.32-6.81-6.4-5.97-2.45.34-3.46,0-3.81-1.27-.27-.96-2.41-2.22-4.82-2.83-4.31-1.09-4.34-1.08-4.34,1.89,0,3.25-1.86,3.87-5.39,1.78-2.87-1.7-5.65-.38-5.65,2.68,0,2.85,2.87,4.26,8,3.92,3.94-.25,4.09,2.68.34,6.89l-2.69,3.03,2.13,3.06c3.16,4.54,2.89,12.07-.56,15.81l-2.7,2.93-1.77-2.35c-2.47-3.27-5.84-3.05-6.76.44-.61,2.28-.1,3.33,2.76,5.75,1.92,1.63,4.73,2.96,6.24,2.96,3.73,0,3.59,2.94-.29,5.9l-3.04,2.32,4.69.73c2.58.4,4.69,1.15,4.69,1.67,0,1.99,3.25,8.2,4.3,8.2.6,0,1.87-1.05,2.82-2.32h0Z"/><path class="cls-4" d="M486.76,384.67c4.26-1.68,13.49-9.49,13.49-11.42,0-.61-2.55-3.41-5.66-6.22-6.55-5.93-13.67-15.9-15.52-21.74-.96-3.04-5.61-8.25-18.71-20.95l-17.43-16.91-5.02,1.27c-2.76.7-6.13,1.29-7.49,1.31-2.34.04-2.3.17.81,2.58l3.28,2.54,4.6-2.55c4.46-2.47,4.62-2.49,5.17-.5.32,1.17-.37,3.19-1.61,4.67-1.2,1.44-1.88,3.07-1.51,3.63.36.56-.79,1.72-2.55,2.58-3.27,1.6-5.55,6.88-2.96,6.88,2.32,0,7.45-6.32,6.86-8.46-.3-1.1-.16-2.22.32-2.5,2-1.17,1.87,3.8-.16,6.24-1.2,1.44-1.88,3.07-1.51,3.63.36.56-.79,1.72-2.55,2.58-3.25,1.59-5.55,6.88-2.99,6.88s7.55-6.04,6.93-8.3c-.33-1.18-.2-2.38.28-2.66,1.34-.79,2.07,3.13.93,5.05-.61,1.03-.6,2.43.01,3.55,1.12,2.02-.02,5.89-2.07,7.1-.88.52-.28,1.53,1.85,3.14,3.1,2.34,3.16,2.58,3.16,12.9,0,8.62.35,10.84,1.93,12.35,1.78,1.68,1.93,1.69,1.93.08,0-1.76,3.1-3.92,5.63-3.92.75,0,5.41,3.96,10.37,8.79,4.99,4.86,10.21,9,11.68,9.27,1.47.26,3.06.54,3.53.62.47.08,2.71-.59,4.97-1.48h0Z"/><path class="cls-4" d="M433.46,342.97c0-2.78-5.73-5.75-12.59-6.51-5.54-.62-5.63-.59-5.63,2.18,0,2.29.87,3.19,4.69,4.85,6.14,2.67,13.52,2.39,13.52-.52h0Z"/><path class="cls-4" d="M439.75,342.71c2.8-2.54,4.12-5.55,2.44-5.55-1.93,0-7.07,4.61-7.07,6.34,0,2.71.95,2.55,4.63-.79h0Z"/><path class="cls-4" d="M433.79,334.49c.24-1.57-.73-2.61-3.64-3.93-6.27-2.83-13.77-4.14-15.57-2.72-3.33,2.61-1.11,6.12,4.26,6.75,2.16.25,5.1.91,6.52,1.47,4.13,1.6,8.06.87,8.43-1.57Z"/><path class="cls-4" d="M433.79,326.1c.34-2.24-1.09-3.04-12.77-7.15-8.72-3.07-12.58-1.62-9.79,3.67.97,1.84,2.6,2.69,6.25,3.23,2.72.41,6.43,1.2,8.25,1.77,4.87,1.51,7.68.98,8.05-1.52h0Z"/><path class="cls-4" d="M439.64,318.23c1.76-1.79,3.2-3.89,3.2-4.68,0-2.56-6.96,1.97-7.84,5.11-1.06,3.77.66,3.61,4.64-.43h0Z"/><path class="cls-4" d="M433.79,317.7c.38-2.55-3.85-4.85-12.19-6.62-6.11-1.3-8.81-.56-8.35,2.28.25,1.55,2.29,2.68,8.06,4.49,9.24,2.88,12.02,2.85,12.47-.15h0Z"/><path class="cls-4" d="M441.94,305.84c10.68-4.75,11.6-16.74,1.53-19.88-4.18-1.31-6.85-.6-8.45,2.23-1.23,2.17-.41,6.11,1.27,6.11.57,0,1.03.73,1.03,1.62,0,4.16-16.3,6.05-22.99,2.66-2.35-1.19-3.37-4.28-1.42-4.28,1.46,0,2.47-3.15,1.72-5.38-1.02-3.03-4.07-4.09-8.51-2.93-10.01,2.62-9.73,14.38.46,19.37,8.36,4.09,26.67,4.34,35.34.48h0Z"/><path class="cls-4" d="M435.3,296.63c.62-.59.35-1.49-.69-2.3-2.27-1.78-2.15-4.44.34-7.48,1.87-2.28,2.1-5.69,2.75-40.13,1.11-59.34,5.52-103.97,11.34-114.68,2.32-4.26,1.99-4.28-3.99-.21-7.71,5.24-13.58,12.07-18.78,21.85-9.82,18.46-13.23,43.29-13.23,96.29,0,30.1.21,34.03,1.92,36.86,1.63,2.69,1.71,3.68.57,6.55-.74,1.86-1.08,3.64-.75,3.95,2.19,2.08,18.16,1.53,20.52-.71h0Z"/><path class="cls-4" d="M525,240.04c.33-.51-.4-3.1-1.64-5.75-1.93-4.13-2.71-4.82-5.46-4.82-8.61,0-22.45-3.85-36.73-10.21-8.24-3.67-11.09-4.52-12.08-3.58-2.52,2.39,1.67,8.06,8.16,11.04,5.76,2.64,21.85,5.89,29.2,5.89,4.26,0,4.36.19,1.94,3.7l-1.78,2.58,4.82.12c2.65.07,6.31.48,8.13.92,4.73,1.14,4.77,1.14,5.45.11h0Z"/><path class="cls-5" d="M575.3,266.78c0-1.53-4.5-5.69-9.07-8.37-3.58-2.1-4.18-2.17-4.18-.45-.01,2.6-2.33,9.15-3.24,9.15-.51,0-1.27-1.28-1.69-2.84-.41-1.56-2.15-4.64-3.86-6.84l-3.11-4-2.42,3.71c-2.26,3.46-6.16,6.84-7.9,6.84-.41,0-.5-1.82-.18-4.05.34-2.42.08-4.34-.66-4.77-.68-.4-1.23-.26-1.23.31,0,1.3-5.43,7.46-6.58,7.46-.47,0-1.14-1.76-1.47-3.92-.34-2.16-.91-5.57-1.27-7.58-.36-2.01.41-.65,1.72,3.03l2.38,6.69,2.61-4.08c1.43-2.24,2.61-4.69,2.61-5.45,0-.75.49-1.09,1.08-.74.59.35,1.41,3.04,1.82,5.99l.75,5.36,2.87-3.14c1.58-1.73,3.43-4.05,4.11-5.15,1.22-1.96,1.29-1.96,3.71.09,1.36,1.15,3.44,3.9,4.63,6.11,1.19,2.21,2.33,3.86,2.52,3.66.19-.2.63-2.48.97-5.07.34-2.59.64-4.8.67-4.92.17-.64,8.64,4.87,11.77,7.65,2.01,1.79,3.93,3.01,4.25,2.7.32-.31.59-2.95.59-5.88,0-4.53-.48-5.75-3.25-8.22-3.19-2.85-3.28-2.86-4.45-.78-1.53,2.7-3.33,2.74-3.33.07,0-1.95-6.02-9.45-7.59-9.45-.41,0-1.67,1.65-2.82,3.66-1.14,2.01-2.37,3.66-2.73,3.65-1.55,0-10.04-9.48-10.03-11.19,0-1.36.57-1.01,2.06,1.26,1.13,1.72,3.39,4.3,5.02,5.72,3.3,2.88,4.5,2.18,5.78-3.37.36-1.58.99-2.87,1.4-2.87,1.41,0,8.8,7.85,9.84,10.45l1.04,2.61.79-2.87c.97-3.52,2.03-3.65,3.58-.44.64,1.34,3.83,4.13,7.08,6.19l5.9,3.75,1.18-3.78c.65-2.08,1.52-3.27,1.92-2.65.6.92-.93,7.18-2.09,8.53-.17.2-2.09-.91-4.25-2.48l-3.94-2.84-.02,5.09c-.01,2.8-.31,6.15-.68,7.44-.72,2.53-2.62,3.24-2.62.98h0Z"/><path class="cls-5" d="M545.87,226.2c-7.02-5.86-8.08-7.2-7.93-9.98l.17-2.96.46,2.85c.27,1.67,2.14,4.16,4.49,6l4.03,3.15,2.48-2.87c1.36-1.58,2.5-3.45,2.52-4.17.06-1.87.39-1.72,5.14,2.41,4.22,3.66,4.29,3.68,4.91,1.31.35-1.32.23-3.81-.28-5.53-1.38-4.73-1.11-5.45.98-2.59,1.04,1.42,2.72,3.43,3.72,4.47,1.75,1.8,1.86,1.78,2.51-.52.37-1.32.69-3.74.7-5.38l.02-2.97,3.81,4.31c3.55,4.03,3.88,4.18,4.97,2.26.64-1.13,1.17-3.85,1.18-6.04.01-2.83.31-3.55,1.03-2.47,1.2,1.8.37,6.71-1.85,10.89l-1.6,3-2.09-3.26c-2.68-4.17-3.57-4.1-5.29.4-1.62,4.25-2.68,4.58-4.26,1.31-1.02-2.12-1.22-1.86-1.95,2.59l-.81,4.94-4.84-3.76-4.84-3.76-2.18,2.47c-1.2,1.36-2.19,3.06-2.21,3.78-.04,1.56-1.21,1.61-2.98.12h0Z"/><path class="cls-5" d="M608.29,204.38c-2.55-2.3-4.31-4.5-3.91-4.88.4-.38.86-.49,1.01-.24.15.25,2.24,2.44,4.64,4.88,5.53,5.61,4.39,5.77-1.74.24h0Z"/><path class="cls-5" d="M525.15,195.79c-2.32-3.14-2.16-5.22.67-8.63,2.04-2.46,2.98-2.79,6.55-2.34,2.29.29,7.22,2.31,10.95,4.49,4.31,2.52,8.77,4.21,12.22,4.63,2.99.36,5.44.5,5.44.3s-1.24-2.22-2.76-4.5c-3.6-5.41-3.48-5.99.58-2.75,4.17,3.33,9.16,4.3,20.32,3.96l5.45-.17-3.16-3.13c-4.42-4.37-3.06-4.76,1.82-.52,4.58,3.97,4.29,4.25-5.35,5.22-4.1.41-8.5.11-12.16-.82-5.48-1.39-5.69-1.37-4.65.46.6,1.06,1.57,1.92,2.15,1.92s1.07.54,1.07,1.19c0,2.02-11.83.24-17.48-2.62-12.92-6.54-14.54-7.11-17.62-6.14-1.71.54-3.42,2.12-4.01,3.7-1.97,5.27,5.51,9.37,8.6,4.71.89-1.35.69-2.28-.89-3.92-2.15-2.25-1.95-2.57.96-1.52,2.06.75,2.34,5.7.42,7.52-2.2,2.08-7.21,1.49-9.1-1.07h0Z"/><path class="cls-5" d="M576.02,182.76c-1.62-1.53-.35-1.9,6.89-2.04,8.96-.17,14.4-1.66,20.82-5.71,5.14-3.25,6.54-2.61,1.66.76-4.45,3.07-11.4,5.43-18.11,6.15-3.25.35-6.95.83-8.22,1.08-1.28.24-2.64.14-3.04-.24h0Z"/></g></svg>