<?xml version="1.0" encoding="UTF-8"?><svg id="_色修正" xmlns="http://www.w3.org/2000/svg" viewBox="0 0 900 600"><defs><style>.cls-1{fill:#e50012;}.cls-1,.cls-2,.cls-3{stroke-width:0px;}.cls-2{fill:#ffe100;}.cls-3{fill:#006cb6;}</style></defs><rect class="cls-1" width="900" height="600"/><rect class="cls-3" x="300" width="300" height="600"/><path class="cls-2" d="M149.88,241.6c-24.63,0-45.78-14.82-55.07-36.02,0,.32-.02.64-.02.96,0,30.43,24.66,55.09,55.09,55.09s55.09-24.66,55.09-55.09c0-.32-.02-.64-.02-.96-9.28,21.2-30.44,36.02-55.07,36.02Z"/><circle class="cls-2" cx="149.88" cy="191.51" r="40.07"/><path class="cls-2" d="M154.09,61.3c-4.98,2.26-6.84,6.33-7.24,10.39-.25,3.42,1.26,7.26,1.41,10.6,0,5.75-5.95,7.64-5.95,15.85,0,2.82,2.6,5.93,2.6,13.24-.45,3.84-2.59,4.71-5.01,5.01-2.77,0-5.01-2.24-5.01-5.01,0-1.28.5-2.52,1.39-3.45.16-.18.33-.35.51-.5,1.14-1.15,2.71-1.6,2.7-4.64,0-1.56-1.01-2.98-1.98-5.75-.91-2.68-.25-7.17,1.92-9.82-3.51,1.35-5.67,4.71-6.77,7.73-1.16,3.71-.15,5.84-1.74,8.92-.97,1.99-2.13,2.82-3.23,4.48-1.3,1.81-2.82,6.05-2.82,8.02,0,13.83,11.21,25.04,25.04,25.04s25.04-11.21,25.04-25.04c0-1.97-1.5-6.21-2.8-8.02-1.1-1.66-2.27-2.49-3.25-4.48-1.57-3.08-.56-5.21-1.72-8.92-1.1-3.01-3.27-6.37-6.77-7.73,2.17,2.65,2.83,7.14,1.92,9.82-.97,2.76-1.99,4.19-1.99,5.75,0,3.04,1.56,3.49,2.7,4.64.18.15.35.32.51.5.89.93,1.38,2.16,1.39,3.45,0,2.77-2.24,5.01-5.01,5.01-2.77-.35-4.76-1.64-5.01-5.01,0-9.64,4.13-10.26,4.13-17.39,0-10.19-9.13-15.01-9.13-22.46,0-2.52.59-6.83,4.17-10.24h0ZM39.7,271.64h50.08v240.39h-50.08v-240.39ZM209.98,271.64h50.08v240.39h-50.08v-240.39ZM99.79,271.64h100.16l-50.08,30.05-50.08-30.05ZM99.79,311.71h100.16v20.03h-100.16v-20.03ZM99.79,451.94h100.16v20.03h-100.16v-20.03ZM99.79,481.99h100.16l-50.08,30.05-50.08-30.05Z"/><path class="cls-2" d="M149.88,341.76c-27.66,0-50.08,22.42-50.08,50.08,0,19.05,10.64,35.62,26.31,44.09-3.63-4.91-5.77-10.97-5.77-17.54,0-16.32,13.23-29.55,29.55-29.55,13,0,23.54-10.54,23.54-23.54s-10.54-23.54-23.54-23.54ZM149.88,375.31c-5.53,0-10.02-4.48-10.02-10.02s4.48-10.02,10.02-10.02,10.02,4.48,10.02,10.02-4.48,10.02-10.02,10.02Z"/><path class="cls-2" d="M173.65,347.75c3.63,4.91,5.77,10.97,5.77,17.54,0,16.32-13.23,29.55-29.55,29.55-13,0-23.54,10.54-23.54,23.54s10.54,23.54,23.54,23.54c27.66,0,50.08-22.42,50.08-50.08,0-19.05-10.64-35.62-26.31-44.09ZM149.88,428.4c-5.53,0-10.02-4.48-10.02-10.02s4.48-10.02,10.02-10.02,10.02,4.48,10.02,10.02-4.48,10.02-10.02,10.02Z"/></svg>